# Blender v2.79 (sub 0) OBJ File: 'cube_uvmapped.blend'
# www.blender.org
mtllib cube_uvmapped2.mtl
v 1.092188 0.080702 2.057503
v 1.092188 0.080702 12.650915
v -9.501226 0.080702 12.650915
v -9.501224 0.080702 2.057500
v 1.111443 5.877000 2.101273
v 1.111437 5.877000 12.694687
v -9.481976 5.877000 12.694681
v -9.481974 5.877000 2.101270
v 1.092190 0.080705 -8.290800
v -9.501221 0.080705 -8.290803
v 1.111445 5.877003 -8.247030
v -9.481970 5.877003 -8.247033
v 11.558496 0.080700 2.057505
v 11.577751 5.876998 2.101275
v 11.558498 0.080702 -8.290797
v 11.577753 5.877000 -8.247027
vt 0.500000 0.251394
vt 0.752926 0.000000
vt 0.752926 0.251394
vt 0.252926 0.499772
vt 0.000000 0.248378
vt 0.252926 0.248378
vt 0.415179 0.500810
vt 0.276787 0.751165
vt 0.276787 0.499772
vt 0.553574 0.751166
vt 0.415179 0.500228
vt 0.553574 0.499772
vt 0.138395 0.500810
vt 0.276787 0.751166
vt 0.138395 0.752204
vt 1.000000 0.251394
vt 0.138395 0.748606
vt 0.000000 0.999543
vt 0.000000 0.748149
vt 0.752926 0.499771
vt 0.500000 0.499772
vt 0.276787 0.996743
vt 0.138395 0.997781
vt 0.830361 0.500810
vt 0.691970 0.745349
vt 0.691969 0.499772
vt 0.553574 0.500228
vt 0.691969 0.748149
vt 0.553574 0.748606
vt 0.138395 0.500229
vt 0.500000 0.000000
vt 0.500000 0.248378
vt 0.500000 0.000000
vt 0.000000 0.499772
vt 0.415179 0.752204
vt 0.415179 0.751622
vt 0.276787 0.499772
vt 1.000000 0.000000
vt 0.138395 1.000000
vt 1.000000 0.499771
vt 0.830361 0.746387
vt 0.691969 0.499772
vt 0.000000 0.499772
vt 0.252926 0.000000
vn 0.5767 -0.5802 0.5751
vn -0.7083 -0.7059 0.0000
vn 0.2994 -0.9057 0.3001
vn -0.7059 0.7083 0.0000
vn 0.5780 0.5745 0.5795
vn 0.3037 0.9033 0.3028
vn -0.5759 0.5762 0.5799
vn -0.5788 -0.5784 0.5748
vn 0.0000 -0.7044 -0.7098
vn -0.5767 0.5802 -0.5751
vn 0.0000 0.7098 -0.7044
vn -0.5780 -0.5745 -0.5795
vn 0.5788 0.5784 -0.5748
vn 0.5759 -0.5762 -0.5799
usemtl Material
s 1
f 2/1/1 4/2/2 1/3/3
f 8/4/4 6/5/5 5/6/6
f 5/7/6 2/8/1 1/9/3
f 2/10/1 7/11/7 3/12/8
f 3/13/8 8/14/4 4/15/2
f 4/2/2 9/16/9 1/3/3
f 9/17/9 12/18/10 11/19/11
f 9/16/9 13/20/1 1/3/3
f 5/6/6 12/21/10 8/4/4
f 4/15/2 12/22/10 10/23/12
f 13/24/1 16/25/13 14/26/5
f 5/27/6 13/28/1 14/29/5
f 11/19/11 15/30/14 9/17/9
f 5/6/6 16/31/13 11/32/11
f 2/1/1 3/33/8 4/2/2
f 8/4/4 7/34/7 6/5/5
f 5/7/6 6/35/5 2/8/1
f 2/10/1 6/36/5 7/11/7
f 3/13/8 7/37/7 8/14/4
f 4/2/2 10/38/12 9/16/9
f 9/17/9 10/39/12 12/18/10
f 9/16/9 15/40/14 13/20/1
f 5/6/6 11/32/11 12/21/10
f 4/15/2 8/14/4 12/22/10
f 13/24/1 15/41/14 16/25/13
f 5/27/6 1/42/3 13/28/1
f 11/19/11 16/43/13 15/30/14
f 5/6/6 14/44/5 16/31/13
