# Blender v2.79 (sub 0) OBJ File: 'cube_uvmapped.blend'
# www.blender.org
mtllib cube_uvmapped.mtl
o Cube
v 1.092188 0.080702 2.057503
v 1.092188 0.080702 12.650915
v -9.501226 0.080702 12.650915
v -9.501224 0.080702 2.057500
v 1.111443 5.877000 2.101273
v 1.111437 5.877000 12.694687
v -9.481976 5.877000 12.694681
v -9.481974 5.877000 2.101270
v 1.092190 0.080705 -8.290800
v -9.501221 0.080705 -8.290803
v 1.111445 5.877003 -8.247030
v -9.481970 5.877003 -8.247033
v 11.558496 0.080700 2.057505
v 11.577751 5.876998 2.101275
v 11.558498 0.080702 -8.290797
v 11.577753 5.877000 -8.247027
v 1.111443 5.877000 2.101273
v 1.111443 5.877000 2.101273
v 1.111437 5.877000 12.694687
v -9.481976 5.877000 12.694681
v -9.481974 5.877000 2.101270
v -9.481970 5.877003 -8.247033
v -9.481970 5.877003 -8.247033
v 1.111445 5.877003 -8.247030
v 11.577751 5.876998 2.101275
v 11.577751 5.876998 2.101275
v 11.577753 5.877000 -8.247027
v 11.577753 5.877000 -8.247027
vt 0.314589 0.614021
vt 0.125172 0.473601
vt 0.316435 0.470354
vt 0.120817 0.839540
vt 0.313926 0.692627
vt 0.312080 0.836294
vt 0.421080 0.469171
vt 0.122663 0.695873
vt 0.123326 0.617268
vt 0.020512 0.475971
vt 0.318238 0.330011
vt 0.128333 0.254640
vt 0.319596 0.251394
vt 0.505403 0.467146
vt 0.119014 0.979883
vt 0.022315 0.335628
vt 0.126975 0.333258
vt 0.611851 0.325620
vt 0.610048 0.465963
vt 0.315772 0.548959
vt 0.504741 0.545751
vt 0.507207 0.326803
vt 0.499245 0.973429
vt 0.310277 0.976637
vt 0.419234 0.612838
vt 0.018666 0.619638
vt 0.508564 0.248186
vt 0.501049 0.833086
vn 0.5767 -0.5802 0.5751
vn -0.7083 -0.7059 0.0000
vn 0.2994 -0.9057 0.3001
vn 0.0000 1.0000 0.0000
vn 0.0000 0.7052 0.7090
vn 1.0000 -0.0033 0.0000
vn 0.0000 0.7037 0.7105
vn -0.5788 -0.5784 0.5748
vn -1.0000 0.0033 0.0000
vn 0.0000 -0.7044 -0.7098
vn 0.0000 0.0075 -1.0000
vn -0.5780 -0.5745 -0.5795
vn 0.0000 -0.0075 1.0000
vn 0.5759 -0.5762 -0.5799
usemtl Material
s 1
f 2/1/1 4/2/2 1/3/3
f 8/4/4 6/5/5 18/6/4
f 17/7/6 2/1/1 1/3/3
f 2/1/1 20/8/7 3/9/8
f 3/9/8 21/10/9 4/2/2
f 4/2/2 9/11/10 1/3/3
f 9/11/10 22/12/11 24/13/11
f 9/11/10 13/14/1 1/3/3
f 18/6/4 23/15/4 8/4/4
f 4/2/2 12/16/9 10/17/12
f 13/14/1 27/18/6 25/19/6
f 5/20/13 13/14/1 26/21/13
f 24/13/11 15/22/14 9/11/10
f 18/6/4 16/23/4 11/24/4
f 2/1/1 3/9/8 4/2/2
f 8/4/4 20/8/7 6/5/5
f 17/7/6 19/25/6 2/1/1
f 2/1/1 6/5/5 20/8/7
f 3/9/8 7/26/9 21/10/9
f 4/2/2 10/17/12 9/11/10
f 9/11/10 10/17/12 22/12/11
f 9/11/10 15/22/14 13/14/1
f 18/6/4 11/24/4 23/15/4
f 4/2/2 21/10/9 12/16/9
f 13/14/1 15/22/14 27/18/6
f 5/20/13 1/3/3 13/14/1
f 24/13/11 28/27/11 15/22/14
f 18/6/4 14/28/4 16/23/4
