# Blender v2.79 (sub 0) OBJ File: ''
# www.blender.org
mtllib testing.mtl
o Cube_Cube.001
v 2.660841 -0.306180 4.937847
v 2.660841 1.693820 4.937847
v 2.660841 -0.306180 2.937847
v 2.660841 1.693820 2.937847
v 4.660841 -0.306180 4.937847
v 4.660841 1.693820 4.937847
v 4.660841 -0.306180 2.937847
v 4.660841 1.693820 2.937847
vn -1.0000 0.0000 0.0000
vn 0.0000 0.0000 -1.0000
vn 1.0000 0.0000 0.0000
vn 0.0000 0.0000 1.0000
vn 0.0000 -1.0000 0.0000
vn 0.0000 1.0000 0.0000
usemtl None
s off
f 2//1 3//1 1//1
f 4//2 7//2 3//2
f 8//3 5//3 7//3
f 6//4 1//4 5//4
f 7//5 1//5 3//5
f 4//6 6//6 8//6
f 2//1 4//1 3//1
f 4//2 8//2 7//2
f 8//3 6//3 5//3
f 6//4 2//4 1//4
f 7//5 5//5 1//5
f 4//6 2//6 6//6
